simulation
nRows=49
nColumns=15
endheader
time  TH_x TH_y TH_z SC_y  SC_z  SC_x  AC_y  AC_z  AC_x  GH_y  GH_z  GH_yy  EL_x  PS_y
0.750076  0.000000  0.000000  0.000000  -22.220880  -1.724712  22.391960  53.444212  -26.904720  -16.912473  -12.072327  14.107996  19.655844  11.879902  119.550495
0.750381  0.000000  0.000000  0.000000  -18.619489  7.465163  22.391960  36.327984  -26.123888  -25.674040  -7.391058  19.297479  16.493771  13.381197  125.717700
0.750687  0.000000  0.000000  0.000000  -31.593058  12.595975  22.391960  54.687771  -19.794637  -8.001492  -2.116898  4.015834  19.613340  30.493401  124.933789
0.750992  0.000000  0.000000  0.000000  -36.316526  15.923972  22.391960  51.459494  -27.475694  -10.879287  -19.261710  17.008265  15.596186  22.239275  119.999548
0.751297  0.000000  0.000000  0.000000  -19.745602  9.131723  22.391960  54.061478  -25.058588  -12.183330  -12.696827  13.372473  7.301492  16.850753  106.931666
0.751602  0.000000  0.000000  0.000000  -25.966957  12.950566  22.391960  41.719970  -24.993345  -23.879376  -17.327722  3.889157  20.287889  26.975754  111.143492
0.751907  0.000000  0.000000  0.000000  -19.627566  -1.997047  22.391960  36.861638  -30.471616  -24.680315  -2.290579  8.094000  16.072908  24.387009  117.318997
0.752212  0.000000  0.000000  0.000000  -42.926132  17.826523  22.391960  45.986834  -24.925860  -15.375872  -2.901766  4.369484  21.105316  16.792968  112.596930
0.752518  0.000000  0.000000  0.000000  -28.853242  -3.668906  22.391960  54.337987  -22.573459  -23.912254  -16.393922  20.073619  17.959849  23.020344  112.133986
0.752823  0.000000  0.000000  0.000000  -46.934302  18.836263  22.391960  50.650803  -27.835881  -11.102021  -13.095444  18.101153  5.086979  19.267561  111.387780
0.753128  0.000000  0.000000  0.000000  -22.692034  16.653015  22.391960  53.905173  -11.118325  -12.191261  -18.142555  10.259948  10.786893  21.792368  112.445588
0.753433  0.000000  0.000000  0.000000  -24.754060  9.224700  22.391960  49.721416  -19.720323  -18.121068  -12.522514  16.422505  15.657108  25.332862  119.182996
0.753738  0.000000  0.000000  0.000000  -26.350266  13.873002  22.391960  36.449697  -23.648562  -23.428376  -6.961024  3.077569  12.669733  22.612155  115.687680
0.754043  0.000000  0.000000  0.000000  -44.724886  11.314652  22.391960  45.400524  -30.966006  -9.855308  -10.626337  6.377568  8.554262  30.359459  121.583357
0.754348  0.000000  0.000000  0.000000  -25.505627  10.984170  22.391960  54.480639  -13.990398  -18.395797  -0.970864  12.792391  13.092698  29.907205  115.144104
0.754654  0.000000  0.000000  0.000000  -20.342256  6.076854  22.391960  53.107423  -29.776406  -11.941276  -12.417892  5.668190  11.653048  30.375442  124.423076
0.754959  0.000000  0.000000  0.000000  -36.321287  10.920635  22.391960  52.349184  -24.644598  -12.149904  -11.498909  20.325341  5.786267  27.192332  114.540158
0.755264  0.000000  0.000000  0.000000  -14.017110  9.123823  22.391960  45.331994  -29.157248  -11.261886  -15.817764  17.188742  10.406075  20.151782  114.198227
0.755569  0.000000  0.000000  0.000000  -32.128741  -0.434837  2.450122  43.745081  7.576302  -4.017228  -10.002062  6.434614  14.751290  21.457193  116.926121
0.755874  0.000000  0.000000  0.000000  -32.128741  -0.434837  -7.549878  42.321483  14.410329  3.424765  -10.002062  6.434614  14.751290  21.457193  116.926121
0.756179  0.000000  0.000000  0.000000  -12.618702  13.891810  -7.549878  47.284556  2.772275  -5.953822  -18.767537  10.426318  18.191778  28.578294  125.058927
0.756485  0.000000  0.000000  0.000000  -20.397122  15.911050  -7.549878  44.452700  -8.982884  -1.901864  -2.582400  -3.344435  23.988128  27.684680  108.740238
0.756790  0.000000  0.000000  0.000000  -23.040609  6.528893  -7.549878  49.916427  -9.422350  -2.878824  -17.880438  11.406378  17.236241  11.849042  118.561003
0.757095  0.000000  0.000000  0.000000  -43.941890  17.909080  -7.549878  46.705977  -6.055705  -2.550145  -11.966331  1.753623  19.429585  12.887161  112.601292
0.757400  0.000000  0.000000  0.000000  -33.702700  17.942048  -7.549878  50.665060  10.424595  5.339483  -15.730157  -1.408976  19.280949  23.158243  117.368909
0.757705  0.000000  0.000000  0.000000  -29.070433  4.646210  -7.549878  43.366320  -9.117968  -5.817949  -19.433596  0.800419  11.313130  18.875830  114.282618
0.758010  0.000000  0.000000  0.000000  -12.677431  4.507390  -7.549878  52.186425  -10.013287  1.196434  -12.327495  9.174651  15.902346  12.406826  112.648377
0.758316  0.000000  0.000000  0.000000  -48.889830  18.628266  -7.549878  48.860546  -9.925273  4.306506  -12.446978  -2.973337  14.613635  29.233508  121.897238
0.758621  0.000000  0.000000  0.000000  -43.793628  9.185559  -7.549878  50.106484  -0.873005  6.161741  -19.241473  6.952367  9.531685  30.253790  118.616007
0.758926  0.000000  0.000000  0.000000  -32.128741  -0.434837  -1.549878  43.287868  10.331165  -1.081014  -10.002062  6.434614  14.751290  21.457193  116.926121
0.759231  0.000000  0.000000  0.000000  -13.682486  17.143174  -1.549878  48.750661  8.407953  -5.709182  -10.345549  3.225726  13.520234  30.192822  123.549270
0.759536  0.000000  0.000000  0.000000  -23.533669  10.617397  -1.549878  48.323473  -11.624750  2.751700  -15.416192  5.907306  13.222411  13.926723  124.422915
0.759841  0.000000  0.000000  0.000000  -30.183110  -2.819497  -1.549878  50.634099  -12.659529  -5.571771  -12.053499  12.461656  10.933283  15.033708  120.536512
0.760146  0.000000  0.000000  0.000000  -26.688152  19.429025  -1.549878  41.469501  -10.433438  -7.859987  -14.382778  -1.834340  8.204105  25.512085  112.651826
0.760452  0.000000  0.000000  0.000000  -42.620858  14.484475  -1.549878  52.867346  -5.898908  -3.501631  -10.151712  6.105486  10.587510  21.318946  118.814084
0.760757  0.000000  0.000000  0.000000  -21.110956  7.740953  -1.549878  50.490968  -5.583140  5.507370  -14.096340  13.619420  6.389239  25.468603  116.672907
0.761062  0.000000  0.000000  0.000000  -14.193198  13.265634  -1.549878  51.795726  4.282419  5.407041  -14.486567  7.214736  16.554406  31.186524  115.894448
0.761367  0.000000  0.000000  0.000000  -38.800891  10.137099  -1.549878  52.971588  -6.848538  5.244758  -0.615462  9.812355  9.069676  26.252365  123.277704
0.761672  0.000000  0.000000  0.000000  -48.058358  14.608195  -1.549878  50.485292  -8.483674  -4.448360  -8.290544  15.505446  6.200174  14.982245  116.488554
0.761977  0.000000  0.000000  0.000000  -32.128741  -0.434837  4.450122  43.919281  6.191118  -5.470411  -10.002062  6.434614  14.751290  21.457193  116.926121
0.762283  0.000000  0.000000  0.000000  -47.951648  3.096507  4.450122  53.593868  -12.477648  -2.360749  -8.637769  10.295236  9.136130  11.888774  125.820531
0.762588  0.000000  0.000000  0.000000  -25.919444  12.431157  4.450122  39.760059  -14.161089  -15.278391  -13.002131  -3.351505  17.463735  13.344443  115.277803
0.762893  0.000000  0.000000  0.000000  -21.603933  2.101580  4.450122  52.964412  -11.099845  -8.132880  -18.380416  1.458662  19.153408  17.131440  107.625994
0.763198  0.000000  0.000000  0.000000  -21.286925  9.779552  4.450122  49.329829  -8.126313  -5.264230  -9.716569  3.465786  12.628731  22.115784  124.869517
0.763503  0.000000  0.000000  0.000000  -25.530108  17.035676  4.450122  50.786264  1.182873  -6.604662  -12.684755  5.623212  11.712299  22.502112  113.086943
0.763808  0.000000  0.000000  0.000000  -18.307487  12.457538  4.450122  48.983807  -14.789804  -8.318940  -0.873813  13.967670  8.275332  14.849098  116.690867
0.764114  0.000000  0.000000  0.000000  -13.528114  10.281560  4.450122  44.800739  -4.887094  -1.441777  -3.542259  -0.107356  6.448601  26.305564  120.782410
0.764419  0.000000  0.000000  0.000000  -13.961041  19.336733  4.450122  48.008444  -8.871771  3.250640  -0.365153  14.999460  12.564503  20.244699  114.087495
0.764724  0.000000  0.000000  0.000000  -35.717444  4.185937  4.450122  45.611917  -17.006445  -5.383708  -5.623121  7.542987  7.416432  12.148316  114.497131
